<svg width="67" height="92" viewBox="0 0 67 92" fill="none" xmlns="http://www.w3.org/2000/svg">
<path d="M4.58333 62.7083C3.05556 60.0694 1.90972 57.3611 1.14583 54.5833C0.381945 51.8056 0 48.9583 0 46.0417C0 36.7361 3.22917 28.8194 9.6875 22.2917C16.1458 15.7639 24.0278 12.5 33.3333 12.5H34.0625L27.3958 5.83333L33.2292 0L49.8958 16.6667L33.2292 33.3333L27.3958 27.5L34.0625 20.8333H33.3333C26.3889 20.8333 20.4861 23.2819 15.625 28.1792C10.7639 33.0764 8.33333 39.0306 8.33333 46.0417C8.33333 47.8472 8.54167 49.6181 8.95833 51.3542C9.375 53.0903 10 54.7917 10.8333 56.4583L4.58333 62.7083ZM33.4375 91.6667L16.7708 75L33.4375 58.3333L39.2708 64.1667L32.6042 70.8333H33.3333C40.2778 70.8333 46.1806 68.3847 51.0417 63.4875C55.9028 58.5903 58.3333 52.6361 58.3333 45.625C58.3333 43.8194 58.125 42.0486 57.7083 40.3125C57.2917 38.5764 56.6667 36.875 55.8333 35.2083L62.0833 28.9583C63.6111 31.5972 64.7569 34.3056 65.5208 37.0833C66.2847 39.8611 66.6667 42.7083 66.6667 45.625C66.6667 54.9306 63.4375 62.8472 56.9792 69.375C50.5208 75.9028 42.6389 79.1667 33.3333 79.1667H32.6042L39.2708 85.8333L33.4375 91.6667Z" fill="#F9F9FA"/>
</svg>
